<svg width="580" height="900" viewBox="0 0 580 900" fill="none" xmlns="http://www.w3.org/2000/svg">
<g clip-path="url(#clip0_918_189)">
<path d="M571.036 364.75H8.95571C4.34571 364.75 0.595703 361 0.595703 356.37C0.595703 351.77 4.34571 348.02 8.95571 348.02H571.036C575.646 348.02 579.386 351.77 579.386 356.37C579.386 361 575.646 364.75 571.036 364.75Z" fill="#52A976"/>
<path d="M50.4123 377.271L21.1523 522.15L71.3124 623.831L122.852 586.221L136.782 715.771L196.672 775.671L230.102 854.37L322.042 896.16L403.532 747.81L451.592 551.4L485.022 626.621L529.602 580.65V377.271H50.4123Z" fill="#52A976"/>
<path d="M459.94 124.7L404.22 240.76L320.64 3.8501L219.32 124.7L171.88 244.67L120.53 153.83L50.4102 335.49H529.6L459.94 124.7ZM122.21 181.95L164.29 266.53L192.5 296.83L275.37 217.42L315.67 27.6001L380.54 239.38L430.7 291.61L457.33 157.02L511.78 321.81H106.82L122.21 181.95Z" fill="#52A976"/>
</g>
<defs>
<clipPath id="clip0_918_189">
<rect width="580" height="900" fill="white"/>
</clipPath>
</defs>
</svg>
