<?xml version="1.0" encoding="UTF-8"?>
<svg id="Laag_2" data-name="Laag 2" xmlns="http://www.w3.org/2000/svg" viewBox="0 0 108.92 15.41">
  <defs>
    <style>
      .cls-1 {
        fill: #004746;
      }
    </style>
  </defs>
  <g id="Laag_1-2" data-name="Laag 1">
    <g>
      <g>
        <path class="cls-1" d="M28.56,13.91c-.07-.07-.11-.16-.11-.26V2.4c0-.1.04-.19.11-.26.07-.07.16-.11.26-.11h2.34c.1,0,.19.04.26.11.07.07.11.16.11.26v3.46c0,.05.03.09.08.11.05.02.09.01.12-.03l3.27-3.63c.16-.18.37-.28.61-.28h3.23c.07,0,.12.03.15.1s.02.13-.03.18l-4.27,4.64c-.06.07-.09.15-.1.24,0,.09.02.17.07.24l4.58,6.3c.05.06.06.13.02.19-.04.07-.09.1-.18.1h-3.07c-.11,0-.22-.03-.33-.08-.11-.06-.19-.13-.25-.21l-2.9-3.98c-.05-.06-.12-.09-.19-.1-.08,0-.14.02-.19.08l-.41.45c-.13.15-.2.33-.2.54v2.94c0,.1-.04.19-.11.26-.07.07-.16.11-.26.11h-2.34c-.1,0-.19-.04-.26-.11Z"/>
        <path class="cls-1" d="M42.49,13.75c-.77-.33-1.45-.77-2.03-1.34-.58-.56-1.04-1.22-1.38-1.98-.34-.75-.51-1.56-.51-2.42s.17-1.67.51-2.42c.34-.75.8-1.41,1.38-1.98.58-.56,1.25-1.01,2.03-1.34s1.59-.49,2.45-.49,1.69.16,2.47.49,1.45.77,2.03,1.34c.58.56,1.03,1.22,1.37,1.98.33.75.5,1.56.5,2.42s-.17,1.67-.5,2.42c-.33.75-.79,1.41-1.37,1.98-.58.56-1.26,1.01-2.03,1.34s-1.6.49-2.47.49-1.68-.16-2.45-.49ZM43.67,5.02c-.39.17-.74.4-1.04.69-.3.29-.53.64-.7,1.04-.17.4-.25.82-.25,1.28s.08.88.25,1.28c.17.4.4.75.7,1.04.3.29.64.52,1.04.69.39.17.82.25,1.27.25s.89-.08,1.28-.25.74-.4,1.03-.69c.29-.29.52-.64.69-1.04.17-.4.25-.82.25-1.28s-.08-.88-.25-1.28c-.17-.4-.4-.75-.69-1.04-.29-.29-.64-.52-1.03-.69s-.82-.25-1.28-.25-.87.08-1.27.25Z"/>
        <path class="cls-1" d="M52.68,13.91c-.07-.07-.11-.16-.11-.26V2.4c0-.1.04-.19.11-.26.07-.07.16-.11.26-.11h8.47c.1,0,.19.04.26.11s.11.16.11.26v2.24c0,.1-.04.19-.11.26-.07.07-.16.11-.26.11h-5.46c-.08,0-.15.03-.22.09s-.09.13-.09.22v1.11c0,.08.03.15.09.22s.13.09.22.09h4.36c.1,0,.19.04.26.11.07.07.11.16.11.26v2.04c0,.1-.04.19-.11.26-.07.07-.16.11-.26.11h-4.36c-.08,0-.15.03-.22.09s-.09.13-.09.22v.92c0,.08.03.15.09.22s.13.09.22.09h5.46c.1,0,.19.04.26.11.07.07.11.16.11.26v2.23c0,.1-.04.19-.11.26-.07.07-.16.11-.26.11h-8.47c-.1,0-.19-.04-.26-.11Z"/>
        <path class="cls-1" d="M63.38,13.91c-.07-.07-.11-.16-.11-.26V2.4c0-.1.04-.19.11-.26.07-.07.16-.11.26-.11h2.34c.1,0,.19.04.26.11.07.07.11.16.11.26v3.46c0,.05.03.09.08.11.05.02.09.01.12-.03l3.27-3.63c.16-.18.37-.28.61-.28h3.23c.07,0,.12.03.15.1.03.07.02.13-.03.18l-4.27,4.64c-.06.07-.1.15-.1.24s.02.17.07.24l4.58,6.3c.05.06.06.13.02.19-.04.07-.09.1-.18.1h-3.07c-.11,0-.22-.03-.33-.08-.11-.06-.19-.13-.25-.21l-2.9-3.98c-.05-.06-.12-.09-.19-.1-.08,0-.14.02-.19.08l-.41.45c-.13.15-.2.33-.2.54v2.94c0,.1-.04.19-.11.26s-.16.11-.26.11h-2.34c-.1,0-.19-.04-.26-.11Z"/>
        <path class="cls-1" d="M77.31,13.75c-.77-.33-1.45-.77-2.03-1.34-.58-.56-1.04-1.22-1.38-1.98-.34-.75-.51-1.56-.51-2.42s.17-1.67.51-2.42c.34-.75.8-1.41,1.38-1.98.58-.56,1.26-1.01,2.03-1.34.77-.33,1.59-.49,2.45-.49s1.69.16,2.47.49,1.45.77,2.03,1.34c.58.56,1.03,1.22,1.37,1.98.33.75.5,1.56.5,2.42s-.17,1.67-.5,2.42c-.33.75-.79,1.41-1.37,1.98-.58.56-1.26,1.01-2.03,1.34s-1.6.49-2.47.49-1.68-.16-2.45-.49ZM78.49,5.02c-.39.17-.74.4-1.04.69-.3.29-.53.64-.7,1.04s-.25.82-.25,1.28.08.88.25,1.28.4.75.7,1.04c.3.29.64.52,1.04.69s.82.25,1.27.25.89-.08,1.28-.25.74-.4,1.03-.69c.29-.29.52-.64.69-1.04.17-.4.25-.82.25-1.28s-.08-.88-.25-1.28c-.17-.4-.4-.75-.69-1.04-.29-.29-.64-.52-1.03-.69s-.82-.25-1.28-.25-.87.08-1.27.25Z"/>
        <path class="cls-1" d="M87.5,13.91c-.07-.07-.11-.16-.11-.26V2.4c0-.1.04-.19.11-.26.07-.07.16-.11.26-.11h8.47c.1,0,.19.04.26.11s.11.16.11.26v2.24c0,.1-.04.19-.11.26-.07.07-.16.11-.26.11h-5.46c-.08,0-.15.03-.22.09s-.09.13-.09.22v1.11c0,.08.03.15.09.22s.13.09.22.09h4.36c.1,0,.19.04.26.11.07.07.11.16.11.26v2.04c0,.1-.04.19-.11.26-.07.07-.16.11-.26.11h-4.36c-.08,0-.15.03-.22.09s-.09.13-.09.22v.92c0,.08.03.15.09.22s.13.09.22.09h5.46c.1,0,.19.04.26.11.07.07.11.16.11.26v2.23c0,.1-.04.19-.11.26-.07.07-.16.11-.26.11h-8.47c-.1,0-.19-.04-.26-.11Z"/>
        <path class="cls-1" d="M98.19,13.91c-.07-.07-.11-.16-.11-.26V2.4c0-.1.04-.19.11-.26.07-.07.16-.11.26-.11h2.34c.1,0,.19.04.26.11.07.07.11.16.11.26v3.46c0,.05.03.09.08.11.05.02.09.01.12-.03l3.27-3.63c.16-.18.37-.28.61-.28h3.23c.07,0,.12.03.15.1.03.07.02.13-.03.18l-4.27,4.64c-.06.07-.1.15-.1.24s.02.17.07.24l4.58,6.3c.05.06.06.13.02.19-.04.07-.09.1-.18.1h-3.07c-.11,0-.22-.03-.33-.08-.11-.06-.19-.13-.25-.21l-2.9-3.98c-.05-.06-.12-.09-.19-.1-.08,0-.14.02-.19.08l-.41.45c-.13.15-.2.33-.2.54v2.94c0,.1-.04.19-.11.26s-.16.11-.26.11h-2.34c-.1,0-.19-.04-.26-.11Z"/>
      </g>
      <g>
        <path class="cls-1" d="M20.58,2.89c-.12-1.37-1.13-2.49-2.45-2.79-.17-.07-.39-.1-.69-.1-2.92,0-4.82,2.89-4.82,2.89l2.38,2.34.03-.03c.58.69,1.45,1.13,2.42,1.13.64,0,1.23-.19,1.72-.52v1.52c0,1.86-2.83,3.34-3.92,3.76l-1.04.39,3.92,3.92h2.02l-3.42-3.42c1.42-.72,3.86-2.31,3.86-4.65V2.89h-.01Z"/>
        <path class="cls-1" d="M11.93,11.16h-7.56c0,1.75,1.84,2.88,3.4,2.09l2.77-1.4,3.55,3.55h2.02l-4.23-4.23.04-.02Z"/>
        <path class="cls-1" d="M0,10.26s8.81-5.05,15.03-5.05v1.04c0,2.21-1.79,4.01-4.01,4.01H0Z"/>
      </g>
    </g>
  </g>
</svg>