<svg width="165" height="80" viewBox="0 0 165 80" fill="none" xmlns="http://www.w3.org/2000/svg">
<g clip-path="url(#clip0_76_2)">
<path d="M118.129 8.26324H101.524V28.8538H118.129V8.26324Z" fill="black"/>
<path d="M99.7471 8.26324H82.8574V28.8538H99.7471V8.26324Z" fill="black"/>
<path fill-rule="evenodd" clip-rule="evenodd" d="M30.6957 1.42792L1.79044 36.3223V78.0392H31.4845V79.8161H0V35.6764L29.5066 0.0711111L29.4548 0H111.582L117.696 6.92604H81.5129V30.1782H119.474V8.93538L141.89 34.3323H59.7563L30.6957 1.42792Z" fill="black"/>
<path fill-rule="evenodd" clip-rule="evenodd" d="M59.853 6.92603L79.8064 30.1265V6.92603H59.853Z" fill="white"/>
<path fill-rule="evenodd" clip-rule="evenodd" d="M12.7102 56.934L16.2993 56.8299C19.1592 56.8299 21.2022 57.3181 22.4361 58.3432C23.6537 59.344 24.2785 60.9217 24.2785 63.0357C24.2785 65.326 23.6296 66.9915 22.3319 68.0483C21.0504 69.0892 19.023 69.61 16.227 69.61C15.4102 69.61 14.2325 69.5378 12.7102 69.386V56.934ZM12.7102 44.1133C13.8715 44.0091 15.2018 43.9533 16.7002 43.9533C20.5617 43.9533 22.5084 45.4587 22.5084 48.4775C22.5084 51.8968 20.393 53.6264 16.1791 53.6264C14.7855 53.6264 13.6476 53.5706 12.7102 53.4906V44.1133ZM17.5653 73.1813H8.24805V40.542C12.2054 40.3496 15.0657 40.2462 16.8201 40.2462C20.0405 40.2462 22.5403 40.9582 24.3107 42.3435C26.081 43.729 26.9621 45.7069 26.9621 48.2858C26.9621 49.8154 26.4098 51.1843 25.264 52.4333C24.1342 53.6748 22.8846 54.4597 21.5146 54.7717C24.1184 55.3965 25.9932 56.4369 27.1705 57.8705C28.3483 59.3124 28.9413 61.2738 28.9413 63.7484C28.9413 66.607 27.8997 68.8969 25.8006 70.6111C23.6859 72.3086 20.946 73.1813 17.5653 73.1813Z" fill="#DB193A"/>
<path fill-rule="evenodd" clip-rule="evenodd" d="M38.7548 44.5461C40.0529 44.4016 40.9419 44.3382 41.3747 44.3382C44.2027 44.3382 46.2615 44.7385 47.5833 45.531C48.881 46.3319 49.5382 47.6451 49.5382 49.4628C49.5382 51.6889 48.9373 53.2265 47.7035 54.0755C46.4861 54.9402 44.547 55.3805 41.8796 55.3805C40.8537 55.3805 39.8125 55.3085 38.7548 55.1485V44.5461ZM52.1981 73.1816L43.4737 59.1522C42.4802 59.1522 40.902 59.0881 38.7548 58.9279V73.1816H34.3008V40.5422C34.4526 40.5422 35.6146 40.4862 37.7695 40.3818C39.9006 40.2619 41.4627 40.2138 42.448 40.2138C50.2911 40.2138 54.2088 43.3286 54.2088 49.5672C54.2088 51.6173 53.5838 53.4507 52.318 55.1002C51.052 56.7499 49.5621 57.7507 47.8237 58.1673L57.293 73.1816H52.1981Z" fill="#DB193A"/>
<path fill-rule="evenodd" clip-rule="evenodd" d="M65.0963 44.5461V53.6267H75.8633V57.4063H65.0963V69.1617H79.8931V73.1816H60.6421V40.5422H80.1332V44.5461H65.0963Z" fill="#DB193A"/>
<path fill-rule="evenodd" clip-rule="evenodd" d="M109.647 73.1813L105.778 52.2015L98.6557 73.6137H97.5261L90.2118 52.2015L86.4143 73.1813H82.1763L88.2807 40.542H90.3158L98.1028 64.3571L105.264 40.542H107.275L113.901 73.1813H109.647Z" fill="#DB193A"/>
<path fill-rule="evenodd" clip-rule="evenodd" d="M121.912 44.5461V53.6267H132.695V57.4063H121.912V69.1617H136.701V73.1816H117.45V40.5422H136.941V44.5461H121.912Z" fill="#DB193A"/>
<path fill-rule="evenodd" clip-rule="evenodd" d="M146.536 44.9019C147.819 44.7592 148.683 44.6965 149.126 44.6965C151.922 44.6965 153.958 45.0922 155.248 45.8755C156.547 46.6673 157.181 47.9656 157.181 49.763C157.181 51.9635 156.579 53.4835 155.383 54.3229C154.179 55.1779 152.262 55.6132 149.602 55.6132C148.612 55.6132 147.582 55.5421 146.536 55.3837V44.9019ZM159.803 73.2121L151.201 59.342C150.219 59.342 148.659 59.2786 146.536 59.1202V73.2121H142.133V40.9436C142.283 40.9436 143.432 40.8882 145.538 40.7852C147.669 40.6664 149.214 40.619 150.188 40.619C157.934 40.619 161.814 43.6984 161.814 49.866C161.814 51.8931 161.196 53.7055 159.945 55.3361C158.694 56.9673 157.22 57.9562 155.486 58.3683L164.864 73.2121H159.803Z" fill="#DB193A"/>
</g>
<defs>
<clipPath id="clip0_76_2">
<rect width="165" height="80" fill="white"/>
</clipPath>
</defs>
</svg>
