<svg id="Group_7" data-name="Group 7" xmlns="http://www.w3.org/2000/svg" width="185.122" height="65.817" viewBox="0 0 185.122 65.817">
  <g id="Group_1" data-name="Group 1" transform="translate(2.353 28.377)">
    <path id="Path_1" data-name="Path 1" d="M10.883,21.371a12.017,12.017,0,0,1,2.522.244,5.425,5.425,0,0,1,1.952.8,3.736,3.736,0,0,1,1.261,1.478,5.187,5.187,0,0,1,.447,2.277,4.241,4.241,0,0,1-.665,2.442,4.831,4.831,0,0,1-1.965,1.6,4.654,4.654,0,0,1,2.67,1.8,5.914,5.914,0,0,1,.312,5.639,4.929,4.929,0,0,1-1.532,1.75,6.771,6.771,0,0,1-2.195,1,9.885,9.885,0,0,1-2.536.325H1.772V21.371Zm-.543,7.837a3.052,3.052,0,0,0,1.871-.543,2.046,2.046,0,0,0,.732-1.762,2.255,2.255,0,0,0-.243-1.111,1.817,1.817,0,0,0-.651-.679,2.735,2.735,0,0,0-.936-.339,6.155,6.155,0,0,0-1.1-.1H6.029v4.529Zm.244,8.215a5.722,5.722,0,0,0,1.194-.121,2.9,2.9,0,0,0,1-.408,2.033,2.033,0,0,0,.692-.773,2.665,2.665,0,0,0,.258-1.247,2.5,2.5,0,0,0-.841-2.128,3.589,3.589,0,0,0-2.224-.637H6.029v5.314Z" transform="translate(-1.772 -21.371)" fill="#161615"/>
  </g>
  <rect id="Rectangle_1" data-name="Rectangle 1" width="165.254" height="65.817" transform="translate(19.571)" fill="#161615"/>
  <g id="Group_2" data-name="Group 2" transform="translate(22.672 28.063)">
    <path id="Path_2" data-name="Path 2" d="M21.952,36.148A3.5,3.5,0,0,0,24.488,37a3.483,3.483,0,0,0,2.038-.592,2.457,2.457,0,0,0,1.048-1.253h3.444a6.544,6.544,0,0,1-2.535,3.665,7.469,7.469,0,0,1-4.133,1.1,8.128,8.128,0,0,1-3.031-.538,6.313,6.313,0,0,1-2.288-1.528,6.9,6.9,0,0,1-1.446-2.37,8.676,8.676,0,0,1-.51-3.031,8.348,8.348,0,0,1,.523-2.977,6.9,6.9,0,0,1,3.79-3.967,7.388,7.388,0,0,1,2.962-.578,6.784,6.784,0,0,1,3.168.7,6.344,6.344,0,0,1,2.219,1.888,7.76,7.76,0,0,1,1.253,2.7,10.1,10.1,0,0,1,.276,3.169H20.988A3.958,3.958,0,0,0,21.952,36.148Zm4.423-7.5a2.75,2.75,0,0,0-2.135-.771,3.4,3.4,0,0,0-1.558.317,2.97,2.97,0,0,0-.992.785,2.842,2.842,0,0,0-.523.992,4.514,4.514,0,0,0-.179.937h6.366A4.528,4.528,0,0,0,26.375,28.652Z" transform="translate(-17.075 -19.89)" fill="#fff"/>
    <path id="Path_3" data-name="Path 3" d="M33.745,25.318V27.3h.082a4.5,4.5,0,0,1,1.929-1.8,5.567,5.567,0,0,1,2.425-.564,6.665,6.665,0,0,1,2.577.426,3.833,3.833,0,0,1,1.584,1.184,4.614,4.614,0,0,1,.813,1.847,11.438,11.438,0,0,1,.234,2.411v8.762H39.477V31.518a4.982,4.982,0,0,0-.552-2.63,2.132,2.132,0,0,0-1.956-.868,2.713,2.713,0,0,0-2.314.951,5.279,5.279,0,0,0-.717,3.127v7.468H30.024V25.318Z" transform="translate(-12.83 -19.89)" fill="#fff"/>
    <path id="Path_4" data-name="Path 4" d="M46.569,25.318V27.3h.082a4.5,4.5,0,0,1,1.929-1.8,5.573,5.573,0,0,1,2.426-.564,6.658,6.658,0,0,1,2.576.426,3.833,3.833,0,0,1,1.584,1.184,4.6,4.6,0,0,1,.813,1.847,11.438,11.438,0,0,1,.234,2.411v8.762H52.3V31.518a4.983,4.983,0,0,0-.551-2.63,2.134,2.134,0,0,0-1.956-.868,2.714,2.714,0,0,0-2.316.951,5.279,5.279,0,0,0-.717,3.127v7.468H42.85V25.318Z" transform="translate(-8.626 -19.89)" fill="#fff"/>
    <path id="Path_5" data-name="Path 5" d="M55.757,24.358V21.135H59.67v3.223Zm3.913,2.205V40.809H55.757V26.563Z" transform="translate(-4.395 -21.135)" fill="#fff"/>
    <path id="Path_6" data-name="Path 6" d="M65.247,25.318V27.3h.082a4.5,4.5,0,0,1,1.929-1.8,5.567,5.567,0,0,1,2.425-.564,6.665,6.665,0,0,1,2.577.426,3.833,3.833,0,0,1,1.584,1.184,4.614,4.614,0,0,1,.813,1.847A11.437,11.437,0,0,1,74.89,30.8v8.762H70.977V31.518a4.983,4.983,0,0,0-.551-2.63,2.131,2.131,0,0,0-1.956-.868,2.713,2.713,0,0,0-2.314.951,5.279,5.279,0,0,0-.717,3.127v7.468H61.526V25.318Z" transform="translate(-2.504 -19.89)" fill="#fff"/>
    <path id="Path_7" data-name="Path 7" d="M87.921,40.612a4.82,4.82,0,0,1-1.005,2.053,6.006,6.006,0,0,1-2.232,1.612,9.629,9.629,0,0,1-3.913.661,9.133,9.133,0,0,1-2.135-.262,6.8,6.8,0,0,1-1.985-.814,4.858,4.858,0,0,1-1.487-1.418,4.1,4.1,0,0,1-.675-2.081h3.884a2.233,2.233,0,0,0,1.076,1.53,3.86,3.86,0,0,0,1.846.426,2.839,2.839,0,0,0,2.411-.992,3.892,3.892,0,0,0,.73-2.507V36.946h-.054a3.879,3.879,0,0,1-1.806,1.668,5.841,5.841,0,0,1-2.466.538,6.213,6.213,0,0,1-2.755-.566,5.217,5.217,0,0,1-1.9-1.543,6.427,6.427,0,0,1-1.089-2.286,10.836,10.836,0,0,1-.345-2.77,8.9,8.9,0,0,1,.4-2.658,6.938,6.938,0,0,1,1.172-2.26,5.653,5.653,0,0,1,1.915-1.558,5.755,5.755,0,0,1,2.63-.578,5.508,5.508,0,0,1,2.467.523,4.254,4.254,0,0,1,1.778,1.763h.054v-1.9h3.719V38.655A9.509,9.509,0,0,1,87.921,40.612Zm-5.359-4.74a3.06,3.06,0,0,0,1.048-.882,3.924,3.924,0,0,0,.619-1.253,5.188,5.188,0,0,0,.207-1.474,8.082,8.082,0,0,0-.165-1.668A4.2,4.2,0,0,0,83.72,29.2a2.864,2.864,0,0,0-1.02-.964,3.218,3.218,0,0,0-1.6-.359,2.869,2.869,0,0,0-1.419.331,2.991,2.991,0,0,0-.992.9,3.739,3.739,0,0,0-.578,1.295,6.326,6.326,0,0,0-.181,1.53,7.68,7.68,0,0,0,.153,1.528,4.091,4.091,0,0,0,.523,1.365,3.072,3.072,0,0,0,.977.992A2.771,2.771,0,0,0,81.1,36.2,3.116,3.116,0,0,0,82.562,35.871Z" transform="translate(1.592 -19.89)" fill="#fff"/>
  </g>
  <g id="Group_3" data-name="Group 3" transform="translate(0 56.93)">
    <rect id="Rectangle_2" data-name="Rectangle 2" width="18.115" height="0.882" fill="#161615"/>
  </g>
  <g id="Group_5" data-name="Group 5" transform="translate(23.777 56.93)">
    <g id="Group_4" data-name="Group 4">
      <rect id="Rectangle_3" data-name="Rectangle 3" width="161.345" height="0.882" fill="#ffcb35"/>
    </g>
  </g>
  <g id="Group_6" data-name="Group 6" transform="translate(123.259 36.799)">
    <path id="Path_8" data-name="Path 8" d="M94,27.714v4.129h.028a1.859,1.859,0,0,1,.911-.967,3.083,3.083,0,0,1,1.368-.3,2.933,2.933,0,0,1,1.443.34,3.027,3.027,0,0,1,1.021.92,4.246,4.246,0,0,1,.615,1.337,6.087,6.087,0,0,1,.207,1.609,6.3,6.3,0,0,1-.2,1.608,3.98,3.98,0,0,1-.607,1.322,2.951,2.951,0,0,1-1.022.888,3.012,3.012,0,0,1-1.429.325,3.172,3.172,0,0,1-.587-.062,2.993,2.993,0,0,1-.643-.2,2.439,2.439,0,0,1-.6-.38,2.043,2.043,0,0,1-.477-.595H94v1.068H92.829V27.714ZM98.22,33.6a3.129,3.129,0,0,0-.4-.952,2.05,2.05,0,0,0-.69-.664,1.909,1.909,0,0,0-.988-.248A1.843,1.843,0,0,0,95.134,32a2.118,2.118,0,0,0-.676.688,3.1,3.1,0,0,0-.381.968,5.234,5.234,0,0,0-.117,1.1,5.072,5.072,0,0,0,.125,1.137,2.964,2.964,0,0,0,.393.967,2.086,2.086,0,0,0,.7.673,1.99,1.99,0,0,0,1.036.255,1.84,1.84,0,0,0,1.016-.263,2,2,0,0,0,.656-.7,3.262,3.262,0,0,0,.358-.989,5.92,5.92,0,0,0,.11-1.145A4.536,4.536,0,0,0,98.22,33.6Z" transform="translate(-92.829 -27.714)" fill="#ffcb35"/>
    <path id="Path_9" data-name="Path 9" d="M99.413,32.413a3.862,3.862,0,0,1,.663-1.33,3.175,3.175,0,0,1,1.091-.89,3.609,3.609,0,0,1,2.989,0,3.215,3.215,0,0,1,1.085.89,3.886,3.886,0,0,1,.663,1.33,5.961,5.961,0,0,1,.22,1.646,5.876,5.876,0,0,1-.22,1.639,3.9,3.9,0,0,1-.663,1.323,3.117,3.117,0,0,1-1.085.882,3.677,3.677,0,0,1-2.989,0,3.08,3.08,0,0,1-1.091-.882,3.87,3.87,0,0,1-.663-1.323,5.826,5.826,0,0,1-.22-1.639A5.91,5.91,0,0,1,99.413,32.413Zm1.2,2.938a2.794,2.794,0,0,0,.475.943,2.1,2.1,0,0,0,.712.58,1.958,1.958,0,0,0,1.726,0,2.1,2.1,0,0,0,.71-.58,2.8,2.8,0,0,0,.477-.943,4.921,4.921,0,0,0,0-2.584,2.89,2.89,0,0,0-.477-.951,2.059,2.059,0,0,0-.71-.587,1.946,1.946,0,0,0-1.726,0,2.063,2.063,0,0,0-.712.587,2.888,2.888,0,0,0-.475.951,4.884,4.884,0,0,0,0,2.584Z" transform="translate(-90.743 -27.008)" fill="#ffcb35"/>
    <path id="Path_10" data-name="Path 10" d="M110.777,38V36.736h-.027a2.585,2.585,0,0,1-.953,1.09,2.613,2.613,0,0,1-1.366.348,2.883,2.883,0,0,1-1.174-.21,1.86,1.86,0,0,1-.76-.595,2.347,2.347,0,0,1-.408-.92,5.514,5.514,0,0,1-.117-1.183V30.008h1.172v5.413a1.7,1.7,0,0,0,.388,1.175,1.353,1.353,0,0,0,1.062.433,2.146,2.146,0,0,0,.932-.186,1.752,1.752,0,0,0,.656-.526,2.35,2.35,0,0,0,.394-.8,3.649,3.649,0,0,0,.13-1V30.008h1.174v8Z" transform="translate(-88.52 -26.962)" fill="#ffcb35"/>
    <path id="Path_11" data-name="Path 11" d="M118.262,38l-1.45-6.356h-.028L115.349,38h-1.271l-2.292-8h1.3L114.7,36.55h.027l1.437-6.542h1.284l1.491,6.542h.028l1.6-6.542h1.215L119.5,38Z" transform="translate(-86.615 -26.962)" fill="#ffcb35"/>
    <path id="Path_12" data-name="Path 12" d="M125.291,27.714v4.129h.028a1.859,1.859,0,0,1,.911-.967,3.082,3.082,0,0,1,1.368-.3,2.932,2.932,0,0,1,1.443.34,3.027,3.027,0,0,1,1.021.92,4.245,4.245,0,0,1,.615,1.337,6.086,6.086,0,0,1,.207,1.609,6.241,6.241,0,0,1-.2,1.608,3.981,3.981,0,0,1-.607,1.322,2.951,2.951,0,0,1-1.022.888,3.012,3.012,0,0,1-1.429.325,3.171,3.171,0,0,1-.587-.062,2.993,2.993,0,0,1-.643-.2,2.439,2.439,0,0,1-.6-.38,2.042,2.042,0,0,1-.477-.595h-.028v1.068h-1.172V27.714ZM129.51,33.6a3.129,3.129,0,0,0-.4-.952,2.05,2.05,0,0,0-.69-.664,1.909,1.909,0,0,0-.988-.248,1.843,1.843,0,0,0-1.008.263,2.118,2.118,0,0,0-.676.688,3.065,3.065,0,0,0-.38.968,5.148,5.148,0,0,0-.118,1.1,5.071,5.071,0,0,0,.125,1.137,2.963,2.963,0,0,0,.393.967,2.1,2.1,0,0,0,.7.673,1.99,1.99,0,0,0,1.036.255,1.84,1.84,0,0,0,1.016-.263,2,2,0,0,0,.656-.7,3.263,3.263,0,0,0,.359-.989,5.924,5.924,0,0,0,.11-1.145A4.538,4.538,0,0,0,129.51,33.6Z" transform="translate(-82.572 -27.714)" fill="#ffcb35"/>
    <path id="Path_13" data-name="Path 13" d="M132.9,38l-2.65-8h1.312l2,6.666h.028l1.948-6.666h1.228l-2.609,8Z" transform="translate(-80.561 -26.962)" fill="#ffcb35"/>
  </g>
</svg>
